<svg xmlns="http://www.w3.org/2000/svg" xmlns:xlink="http://www.w3.org/1999/xlink" version="1.1" width="1000" height="1000" viewBox="0 0 1000 1000" xml:space="preserve">
<desc>Created with Fabric.js 3.5.0</desc>
<defs>
</defs>
<rect x="0" y="0" width="100%" height="100%" fill="rgba(0,0,0,0)"/>
<g transform="matrix(3.367 0 0 3.367 975.0712 532.7671)" id="944413">
<path style="stroke: none; stroke-width: 0; stroke-dasharray: none; stroke-linecap: butt; stroke-dashoffset: 0; stroke-linejoin: miter; stroke-miterlimit: 4; is-custom-font: none; font-file-url: none; fill: rgb(241,48,36); fill-rule: nonzero; opacity: 1;" transform=" translate(-267.258, -30.822)" d="M 265.19 33 V 28.644 H 269.326 V 33 H 265.19 Z" stroke-linecap="round"/>
</g>
<g transform="matrix(1 0 0 1 500.05 500)" style="" id="671954">
		
<path xml:space="preserve" font-family="Lato" font-size="144" font-style="normal" font-weight="bold" style="stroke: none; stroke-width: 0; stroke-dasharray: none; stroke-linecap: butt; stroke-dashoffset: 0; stroke-linejoin: miter; stroke-miterlimit: 4; is-custom-font: none; font-file-url: none; fill: rgb(255,255,255); fill-rule: nonzero; opacity: 1; white-space: pre;" d="M-405.19 45.24L-422.98 45.24L-422.98-61.76L-405.19-61.76L-405.19-20.64Q-400.87-24.75-395.69-27.27Q-390.50-29.79-383.52-29.79L-383.52-29.79Q-377.47-29.79-372.79-27.74Q-368.11-25.68-364.98-21.98Q-361.85-18.27-360.23-13.12Q-358.61-7.97-358.61-1.78L-358.61-1.78L-358.61 45.24L-376.39 45.24L-376.39-1.78Q-376.39-8.55-379.52-12.26Q-382.66-15.96-388.92-15.96L-388.92-15.96Q-393.53-15.96-397.56-13.88Q-401.59-11.79-405.19-8.19L-405.19-8.19L-405.19 45.24Z"/><path xml:space="preserve" font-family="Lato" font-size="144" font-style="normal" font-weight="bold" style="stroke: none; stroke-width: 0; stroke-dasharray: none; stroke-linecap: butt; stroke-dashoffset: 0; stroke-linejoin: miter; stroke-miterlimit: 4; is-custom-font: none; font-file-url: none; fill: rgb(255,255,255); fill-rule: nonzero; opacity: 1; white-space: pre;" d="M-257.79-1.42L-257.79 45.24L-265.78 45.24Q-268.30 45.24-269.74 44.48Q-271.18 43.72-271.90 41.42L-271.90 41.42L-273.48 36.16Q-276.29 38.68-278.99 40.59Q-281.69 42.50-284.57 43.80Q-287.45 45.09-290.69 45.74Q-293.93 46.39-297.89 46.39L-297.89 46.39Q-302.57 46.39-306.53 45.13Q-310.49 43.87-313.33 41.35Q-316.18 38.83-317.76 35.08Q-319.35 31.34-319.35 26.37L-319.35 26.37Q-319.35 22.20-317.15 18.13Q-314.95 14.06-309.84 10.78Q-304.73 7.51-296.23 5.35Q-287.74 3.19-275.14 2.90L-275.14 2.90L-275.14-1.42Q-275.14-8.84-278.27-12.40Q-281.40-15.96-287.38-15.96L-287.38-15.96Q-291.70-15.96-294.58-14.96Q-297.46-13.95-299.58-12.69Q-301.71-11.43-303.51-10.42Q-305.31-9.41-307.47-9.41L-307.47-9.41Q-309.27-9.41-310.56-10.35Q-311.86-11.28-312.65-12.65L-312.65-12.65L-315.89-18.34Q-303.15-30.00-285.15-30.00L-285.15-30.00Q-278.67-30.00-273.59-27.88Q-268.51-25.76-264.99-21.98Q-261.46-18.20-259.62-12.94Q-257.79-7.68-257.79-1.42L-257.79-1.42ZM-292.35 34.15L-292.35 34.15Q-289.61 34.15-287.31 33.64Q-285.00 33.14-282.95 32.13Q-280.90 31.12-278.99 29.65Q-277.08 28.17-275.14 26.16L-275.14 26.16L-275.14 13.70Q-282.91 14.06-288.13 15.03Q-293.35 16.00-296.52 17.52Q-299.69 19.03-301.02 21.04Q-302.35 23.06-302.35 25.44L-302.35 25.44Q-302.35 30.12-299.58 32.13Q-296.81 34.15-292.35 34.15Z"/><path xml:space="preserve" font-family="Lato" font-size="144" font-style="normal" font-weight="bold" style="stroke: none; stroke-width: 0; stroke-dasharray: none; stroke-linecap: butt; stroke-dashoffset: 0; stroke-linejoin: miter; stroke-miterlimit: 4; is-custom-font: none; font-file-url: none; fill: rgb(255,255,255); fill-rule: nonzero; opacity: 1; white-space: pre;" d="M-153.60 45.24L-164.47 45.24Q-167.93 45.24-169.01 42.00L-169.01 42.00L-170.45 34.87Q-172.75 37.46-175.27 39.55Q-177.79 41.64-180.71 43.15Q-183.63 44.66-186.97 45.49Q-190.32 46.32-194.21 46.32L-194.21 46.32Q-200.26 46.32-205.30 43.80Q-210.34 41.28-213.97 36.49Q-217.61 31.70-219.59 24.64Q-221.57 17.59-221.57 8.52L-221.57 8.52Q-221.57 0.31-219.34-6.75Q-217.11-13.80-212.93-18.99Q-208.75-24.17-202.92-27.09Q-197.09-30.00-189.82-30.00L-189.82-30.00Q-183.63-30.00-179.23-28.02Q-174.84-26.04-171.39-22.73L-171.39-22.73L-171.39-61.76L-153.60-61.76L-153.60 45.24ZM-188.16 32.20L-188.16 32.20Q-182.62 32.20-178.73 29.90Q-174.84 27.60-171.39 23.35L-171.39 23.35L-171.39-9.77Q-174.41-13.44-177.97-14.96Q-181.54-16.47-185.64-16.47L-185.64-16.47Q-189.67-16.47-192.95-14.96Q-196.23-13.44-198.49-10.38Q-200.76-7.32-201.99-2.61Q-203.21 2.11-203.21 8.52L-203.21 8.52Q-203.21 15.00-202.17 19.50Q-201.12 24.00-199.18 26.84Q-197.23 29.68-194.43 30.94Q-191.62 32.20-188.16 32.20Z"/><path xml:space="preserve" font-family="Lato" font-size="144" font-style="normal" font-weight="bold" style="stroke: none; stroke-width: 0; stroke-dasharray: none; stroke-linecap: butt; stroke-dashoffset: 0; stroke-linejoin: miter; stroke-miterlimit: 4; is-custom-font: none; font-file-url: none; fill: rgb(255,255,255); fill-rule: nonzero; opacity: 1; white-space: pre;" d="M-42.70-28.64L-82.95 65.54Q-83.74 67.41-85.00 68.38Q-86.26 69.36-88.85 69.36L-88.85 69.36L-102.10 69.36L-88.28 39.76L-118.16-28.64L-102.60-28.64Q-100.44-28.64-99.29-27.63Q-98.14-26.62-97.56-25.32L-97.56-25.32L-81.80 12.98Q-81.00 14.85-80.43 16.87Q-79.85 18.88-79.42 20.90L-79.42 20.90Q-78.84 18.81-78.16 16.87Q-77.48 14.92-76.68 12.91L-76.68 12.91L-61.85-25.32Q-61.28-26.76-59.94-27.70Q-58.61-28.64-56.96-28.64L-56.96-28.64L-42.70-28.64Z"/><path xml:space="preserve" font-family="Lato" font-size="144" font-style="normal" font-weight="bold" style="stroke: none; stroke-width: 0; stroke-dasharray: none; stroke-linecap: butt; stroke-dashoffset: 0; stroke-linejoin: miter; stroke-miterlimit: 4; is-custom-font: none; font-file-url: none; fill: rgb(255,255,255); fill-rule: nonzero; opacity: 1; white-space: pre;" d=""/><path xml:space="preserve" font-family="Lato" font-size="144" font-style="normal" font-weight="bold" style="stroke: none; stroke-width: 0; stroke-dasharray: none; stroke-linecap: butt; stroke-dashoffset: 0; stroke-linejoin: miter; stroke-miterlimit: 4; is-custom-font: none; font-file-url: none; fill: rgb(255,255,255); fill-rule: nonzero; opacity: 1; white-space: pre;" d="M77.54 46.39L77.54 46.39Q67.96 46.39 62.78 40.95Q57.60 35.52 57.60 25.94L57.60 25.94L57.60-15.32L50.11-15.32Q48.67-15.32 47.62-16.25Q46.58-17.19 46.58-19.06L46.58-19.06L46.58-26.12L58.46-28.06L62.20-48.22Q62.49-49.66 63.54-50.45Q64.58-51.24 66.16-51.24L66.16-51.24L75.38-51.24L75.38-27.99L94.82-27.99L94.82-15.32L75.38-15.32L75.38 24.72Q75.38 28.17 77.11 30.12Q78.84 32.06 81.72 32.06L81.72 32.06Q83.37 32.06 84.49 31.66Q85.60 31.27 86.43 30.84Q87.26 30.40 87.91 30.01Q88.56 29.61 89.20 29.61L89.20 29.61Q90.00 29.61 90.50 30.01Q91.00 30.40 91.58 31.20L91.58 31.20L96.91 39.84Q93.02 43.08 87.98 44.73Q82.94 46.39 77.54 46.39Z"/><path xml:space="preserve" font-family="Lato" font-size="144" font-style="normal" font-weight="bold" style="stroke: none; stroke-width: 0; stroke-dasharray: none; stroke-linecap: butt; stroke-dashoffset: 0; stroke-linejoin: miter; stroke-miterlimit: 4; is-custom-font: none; font-file-url: none; fill: rgb(255,255,255); fill-rule: nonzero; opacity: 1; white-space: pre;" d="M178.39-1.42L178.39 45.24L170.40 45.24Q167.88 45.24 166.44 44.48Q165.00 43.72 164.28 41.42L164.28 41.42L162.69 36.16Q159.88 38.68 157.18 40.59Q154.48 42.50 151.60 43.80Q148.72 45.09 145.48 45.74Q142.24 46.39 138.28 46.39L138.28 46.39Q133.60 46.39 129.64 45.13Q125.68 43.87 122.84 41.35Q120.00 38.83 118.41 35.08Q116.83 31.34 116.83 26.37L116.83 26.37Q116.83 22.20 119.02 18.13Q121.22 14.06 126.33 10.78Q131.44 7.51 139.94 5.35Q148.44 3.19 161.04 2.90L161.04 2.90L161.04-1.42Q161.04-8.84 157.90-12.40Q154.77-15.96 148.80-15.96L148.80-15.96Q144.48-15.96 141.60-14.96Q138.72-13.95 136.59-12.69Q134.47-11.43 132.67-10.42Q130.87-9.41 128.71-9.41L128.71-9.41Q126.91-9.41 125.61-10.35Q124.32-11.28 123.52-12.65L123.52-12.65L120.28-18.34Q133.03-30.00 151.03-30.00L151.03-30.00Q157.51-30.00 162.58-27.88Q167.66-25.76 171.19-21.98Q174.72-18.20 176.55-12.94Q178.39-7.68 178.39-1.42L178.39-1.42ZM143.83 34.15L143.83 34.15Q146.56 34.15 148.87 33.64Q151.17 33.14 153.22 32.13Q155.28 31.12 157.18 29.65Q159.09 28.17 161.04 26.16L161.04 26.16L161.04 13.70Q153.26 14.06 148.04 15.03Q142.82 16.00 139.65 17.52Q136.48 19.03 135.15 21.04Q133.82 23.06 133.82 25.44L133.82 25.44Q133.82 30.12 136.59 32.13Q139.36 34.15 143.83 34.15Z"/><path xml:space="preserve" font-family="Lato" font-size="144" font-style="normal" font-weight="bold" style="stroke: none; stroke-width: 0; stroke-dasharray: none; stroke-linecap: butt; stroke-dashoffset: 0; stroke-linejoin: miter; stroke-miterlimit: 4; is-custom-font: none; font-file-url: none; fill: rgb(255,255,255); fill-rule: nonzero; opacity: 1; white-space: pre;" d="M223.58 45.24L211.85 45.24L211.85-61.76L229.63-61.76L229.63-19.56Q234.02-24.24 239.57-27.02Q245.11-29.79 252.53-29.79L252.53-29.79Q258.57-29.79 263.58-27.30Q268.58-24.82 272.22-20.07Q275.85-15.32 277.83-8.33Q279.81-1.35 279.81 7.72L279.81 7.72Q279.81 16.00 277.58 23.06Q275.35 30.12 271.21 35.30Q267.07 40.48 261.20 43.40Q255.33 46.32 248.06 46.32L248.06 46.32Q244.68 46.32 241.87 45.63Q239.06 44.95 236.76 43.72Q234.45 42.50 232.47 40.74Q230.49 38.97 228.69 36.81L228.69 36.81L227.90 41.78Q227.47 43.65 226.43 44.44Q225.38 45.24 223.58 45.24L223.58 45.24ZM246.41-15.96L246.41-15.96Q240.86-15.96 236.94-13.62Q233.01-11.28 229.63-7.04L229.63-7.04L229.63 26.08Q232.65 29.83 236.22 31.30Q239.78 32.78 243.96 32.78L243.96 32.78Q247.99 32.78 251.23 31.27Q254.47 29.76 256.74 26.66Q259.01 23.56 260.23 18.85Q261.45 14.13 261.45 7.72L261.45 7.72Q261.45 1.24 260.41-3.26Q259.37-7.76 257.42-10.56Q255.48-13.37 252.71-14.67Q249.93-15.96 246.41-15.96Z"/><path xml:space="preserve" font-family="Lato" font-size="144" font-style="normal" font-weight="bold" style="stroke: none; stroke-width: 0; stroke-dasharray: none; stroke-linecap: butt; stroke-dashoffset: 0; stroke-linejoin: miter; stroke-miterlimit: 4; is-custom-font: none; font-file-url: none; fill: rgb(255,255,255); fill-rule: nonzero; opacity: 1; white-space: pre;" d="M341.37-29.79L341.37-29.79Q348.36-29.79 354.23-27.56Q360.09-25.32 364.34-21.04Q368.59-16.76 370.97-10.53Q373.34-4.30 373.34 3.69L373.34 3.69Q373.34 5.71 373.16 7.04Q372.98 8.37 372.51 9.13Q372.05 9.88 371.25 10.21Q370.46 10.53 369.24 10.53L369.24 10.53L323.59 10.53Q324.38 21.91 329.71 27.24Q335.04 32.56 343.82 32.56L343.82 32.56Q348.14 32.56 351.27 31.56Q354.41 30.55 356.75 29.32Q359.09 28.10 360.85 27.09Q362.61 26.08 364.27 26.08L364.27 26.08Q365.35 26.08 366.14 26.52Q366.93 26.95 367.51 27.74L367.51 27.74L372.69 34.22Q369.74 37.68 366.07 40.02Q362.40 42.36 358.40 43.76Q354.41 45.16 350.27 45.74Q346.13 46.32 342.24 46.32L342.24 46.32Q334.53 46.32 327.91 43.76Q321.29 41.20 316.39 36.20Q311.49 31.20 308.69 23.82Q305.88 16.44 305.88 6.72L305.88 6.72Q305.88-0.84 308.33-7.50Q310.77-14.16 315.35-19.10Q319.92-24.03 326.51-26.91Q333.09-29.79 341.37-29.79ZM341.73-17.04L341.73-17.04Q333.96-17.04 329.57-12.65Q325.17-8.26 323.95-0.20L323.95-0.20L357.36-0.20Q357.36-3.65 356.42-6.71Q355.49-9.77 353.54-12.08Q351.60-14.38 348.65-15.71Q345.69-17.04 341.73-17.04Z"/><path xml:space="preserve" font-family="Lato" font-size="144" font-style="normal" font-weight="bold" style="stroke: none; stroke-width: 0; stroke-dasharray: none; stroke-linecap: butt; stroke-dashoffset: 0; stroke-linejoin: miter; stroke-miterlimit: 4; is-custom-font: none; font-file-url: none; fill: rgb(255,255,255); fill-rule: nonzero; opacity: 1; white-space: pre;" d="M426.24 46.39L426.24 46.39Q416.66 46.39 411.48 40.95Q406.30 35.52 406.30 25.94L406.30 25.94L406.30-15.32L398.81-15.32Q397.37-15.32 396.32-16.25Q395.28-17.19 395.28-19.06L395.28-19.06L395.28-26.12L407.16-28.06L410.90-48.22Q411.19-49.66 412.24-50.45Q413.28-51.24 414.86-51.24L414.86-51.24L424.08-51.24L424.08-27.99L443.52-27.99L443.52-15.32L424.08-15.32L424.08 24.72Q424.08 28.17 425.81 30.12Q427.54 32.06 430.42 32.06L430.42 32.06Q432.07 32.06 433.19 31.66Q434.30 31.27 435.13 30.84Q435.96 30.40 436.61 30.01Q437.26 29.61 437.90 29.61L437.90 29.61Q438.70 29.61 439.20 30.01Q439.70 30.40 440.28 31.20L440.28 31.20L445.61 39.84Q441.72 43.08 436.68 44.73Q431.64 46.39 426.24 46.39Z"/></g>
</svg>